<svg xmlns="http://www.w3.org/2000/svg" viewBox="0 0 1215 350" width="100%" height="100%">
  <rect width="1215" height="350" rx="12" fill="#1b2a4a"/>
  <rect x="8" y="8" width="1199" height="334" rx="8" fill="none" stroke="#c5a55a" stroke-width="3"/>
  <rect x="40" y="175" width="1135" height="4" fill="#c41230"/>
  <g>
    <path d="M813 -38Q657 -38 521.0 12.5Q385 63 284 159Q185 253 128.0 391.5Q71 530 71 696Q71 861 128.5 1001.5Q186 1142 290 1245Q392 1346 535.0 1401.5Q678 1457 841 1457Q959 1457 1056.0 1428.5Q1153 1400 1220 1364L1282 1419H1369L1378 901H1290Q1215 1138 1110.0 1249.0Q1005 1360 854 1360Q666 1360 568.0 1194.5Q470 1029 470 730Q470 561 503.5 441.5Q537 322 591 249Q649 173 728.0 137.5Q807 102 903 102Q1043 102 1152.5 178.0Q1262 254 1352 408L1438 356Q1395 268 1340.0 198.5Q1285 129 1213 79Q1134 24 1038.5 -7.0Q943 -38 813 -38Z" transform="translate(368.7,148.0) scale(0.046875,-0.046875)" fill="#ffffff"/>
    <path d="M1404 455 1376 0H69V78Q104 81 151.0 87.5Q198 94 213 100Q249 114 263.0 139.0Q277 164 277 203V1204Q277 1240 266.0 1263.5Q255 1287 213 1306Q182 1320 138.5 1328.5Q95 1337 69 1341V1419H848V1341Q816 1338 772.5 1332.5Q729 1327 697 1317Q658 1304 645.0 1276.5Q632 1249 632 1214V281Q632 215 641.0 177.0Q650 139 676 121Q702 102 748.5 96.5Q795 91 877 91Q957 91 1032.5 100.5Q1108 110 1141 142Q1192 193 1245.5 285.5Q1299 378 1331 455Z" transform="translate(445.4,148.0) scale(0.046875,-0.046875)" fill="#ffffff"/>
    <path d="M1609 0H836V78Q890 82 963.0 97.5Q1036 113 1036 136Q1036 144 1034.5 154.0Q1033 164 1026 181L905 475H415Q398 434 377.5 379.0Q357 324 342 281Q323 225 319.5 200.0Q316 175 316 165Q316 133 364.5 110.5Q413 88 526 78V0H-56V78Q-23 80 18.5 88.5Q60 97 84 112Q125 136 153.5 171.0Q182 206 201 254Q317 535 433.5 817.0Q550 1099 691 1439H891Q1087 957 1198.0 677.0Q1309 397 1387 213Q1400 183 1420.0 158.5Q1440 134 1477 112Q1505 96 1542.0 88.0Q1579 80 1609 78ZM864 574 658 1088 455 574Z" transform="translate(519.2,148.0) scale(0.046875,-0.046875)" fill="#ffffff"/>
    <path d="M1703 1341Q1674 1338 1619.5 1327.5Q1565 1317 1528 1291Q1490 1266 1474.5 1201.0Q1459 1136 1459 1006V478Q1459 245 1301.0 103.0Q1143 -39 883 -39Q580 -39 414.0 98.0Q248 235 248 480V1206Q248 1241 234.5 1266.0Q221 1291 183 1311Q157 1324 119.0 1332.0Q81 1340 57 1343V1419H801V1343Q769 1341 736.0 1335.5Q703 1330 669 1319Q631 1307 618.0 1279.0Q605 1251 605 1216V500Q605 289 698.0 193.0Q791 97 968 97Q1142 97 1241.0 203.0Q1340 309 1340 515V996Q1340 1124 1322.5 1187.5Q1305 1251 1269 1279Q1243 1301 1178.5 1319.0Q1114 1337 1088 1341V1419H1703Z" transform="translate(600.0,148.0) scale(0.046875,-0.046875)" fill="#ffffff"/>
    <path d="M1347 1273Q1477 1188 1557.0 1046.5Q1637 905 1637 700Q1637 520 1565.5 386.5Q1494 253 1376 168Q1256 83 1103.5 41.5Q951 0 784 0H69V78Q101 79 149.0 84.0Q197 89 213 96Q249 111 263.0 136.5Q277 162 277 198V1204Q277 1238 264.0 1265.5Q251 1293 213 1310Q175 1327 132.5 1333.0Q90 1339 67 1341V1419H822Q943 1419 1081.0 1388.0Q1219 1357 1347 1273ZM1143 256Q1192 336 1214.5 446.5Q1237 557 1237 701Q1237 842 1207.0 958.0Q1177 1074 1119 1156Q1061 1238 974.5 1283.0Q888 1328 778 1328Q743 1328 698.5 1326.5Q654 1325 632 1324V247Q632 211 641.5 183.5Q651 156 674 135Q697 114 730.5 102.5Q764 91 818 91Q931 91 1012.0 133.0Q1093 175 1143 256Z" transform="translate(688.0,148.0) scale(0.046875,-0.046875)" fill="#ffffff"/>
    <path d="M1327 1057H1251Q1222 1138 1151.0 1221.0Q1080 1304 1010 1319Q980 1326 926.5 1327.5Q873 1329 838 1329H632V781H778Q833 781 878.0 794.0Q923 807 960 844Q983 867 1006.5 925.0Q1030 983 1037 1026H1113V434H1037Q1031 476 1006.5 539.5Q982 603 960 627Q927 663 882.0 676.5Q837 690 778 690H632V281Q632 217 641.5 179.5Q651 142 677 122Q702 103 745.5 97.0Q789 91 864 91Q899 91 948.0 92.0Q997 93 1034 98Q1076 103 1112.5 113.0Q1149 123 1167 142Q1215 191 1275.0 291.5Q1335 392 1354 442H1427L1400 0H69V78Q97 80 145.0 86.0Q193 92 213 100Q251 116 264.0 140.5Q277 165 277 203V1204Q277 1240 266.0 1263.5Q255 1287 213 1306Q187 1318 140.0 1328.0Q93 1338 69 1341V1419H1327Z" transform="translate(776.1,148.0) scale(0.046875,-0.046875)" fill="#ffffff"/>
  </g>
  <g>
    <path d="M1276 0H54Q75 181 181.5 340.5Q288 500 581 717Q760 850 810.0 919.0Q860 988 860 1050Q860 1117 810.5 1164.5Q761 1212 686 1212Q608 1212 558.5 1163.0Q509 1114 492 990L84 1023Q108 1195 172.0 1291.5Q236 1388 352.5 1439.5Q469 1491 675 1491Q890 1491 1009.5 1442.0Q1129 1393 1197.5 1291.5Q1266 1190 1266 1064Q1266 930 1187.5 808.0Q1109 686 902 540Q779 455 737.5 421.0Q696 387 640 332H1276Z" transform="translate(487.0,240.0) scale(0.035156,-0.035156)" fill="#c5a55a"/>
    <path d="M84 739Q84 1157 234.5 1324.0Q385 1491 693 1491Q841 1491 936.0 1454.5Q1031 1418 1091.0 1359.5Q1151 1301 1185.5 1236.5Q1220 1172 1241 1086Q1282 922 1282 744Q1282 345 1147.0 160.0Q1012 -25 682 -25Q497 -25 383.0 34.0Q269 93 196 207Q143 288 113.5 428.5Q84 569 84 739ZM488 738Q488 458 537.5 355.5Q587 253 681 253Q743 253 788.5 296.5Q834 340 855.5 434.0Q877 528 877 727Q877 1019 827.5 1119.5Q778 1220 679 1220Q578 1220 533.0 1117.5Q488 1015 488 738Z" transform="translate(551.0,240.0) scale(0.035156,-0.035156)" fill="#c5a55a"/>
    <path d="M1276 0H54Q75 181 181.5 340.5Q288 500 581 717Q760 850 810.0 919.0Q860 988 860 1050Q860 1117 810.5 1164.5Q761 1212 686 1212Q608 1212 558.5 1163.0Q509 1114 492 990L84 1023Q108 1195 172.0 1291.5Q236 1388 352.5 1439.5Q469 1491 675 1491Q890 1491 1009.5 1442.0Q1129 1393 1197.5 1291.5Q1266 1190 1266 1064Q1266 930 1187.5 808.0Q1109 686 902 540Q779 455 737.5 421.0Q696 387 640 332H1276Z" transform="translate(615.0,240.0) scale(0.035156,-0.035156)" fill="#c5a55a"/>
    <path d="M329 788Q233 839 189 902Q129 988 129 1100Q129 1284 302 1401Q437 1491 659 1491Q953 1491 1093.5 1379.0Q1234 1267 1234 1097Q1234 998 1178 912Q1136 848 1046 788Q1165 731 1223.5 637.0Q1282 543 1282 429Q1282 319 1231.5 223.5Q1181 128 1107.5 76.0Q1034 24 924.5 -0.5Q815 -25 691 -25Q458 -25 335.0 30.0Q212 85 148.0 192.0Q84 299 84 431Q84 560 144.0 649.5Q204 739 329 788ZM512 1076Q512 1000 559.5 953.5Q607 907 686 907Q756 907 801.0 953.0Q846 999 846 1072Q846 1148 799.0 1195.5Q752 1243 679 1243Q605 1243 558.5 1196.5Q512 1150 512 1076ZM490 445Q490 348 549.0 286.5Q608 225 684 225Q757 225 815.0 287.5Q873 350 873 446Q873 543 814.5 605.0Q756 667 679 667Q603 667 546.5 607.0Q490 547 490 445Z" transform="translate(679.0,240.0) scale(0.035156,-0.035156)" fill="#c5a55a"/>
  </g>
  <g>
    <path d="M474 505V205H684Q758 205 789.5 176.5Q821 148 821 102Q821 57 789.5 28.5Q758 0 684 0H237Q163 0 131.5 28.5Q100 57 100 103Q100 148 132.0 176.5Q164 205 237 205H269V1007H237Q163 1007 131.5 1035.5Q100 1064 100 1110Q100 1156 131.5 1184.5Q163 1213 237 1213L1202 1212V899Q1202 826 1173.5 794.5Q1145 763 1099 763Q1054 763 1025.5 794.0Q997 825 997 899V1007H474V710H654Q654 790 669 813Q700 862 757 862Q802 862 830.5 830.5Q859 799 859 725V489Q859 415 830.5 383.5Q802 352 756 352Q700 352 669 401Q654 424 654 505Z" transform="translate(422.8,305.0) scale(0.007812,-0.007812)" fill="#8fa3c4"/>
    <path d="M1190 606Q1190 333 1016.5 151.5Q843 -30 615 -30Q410 -30 245 121Q41 308 41 606Q41 904 245 1092Q410 1243 615 1243Q843 1243 1016.5 1061.5Q1190 880 1190 606ZM985 606Q985 793 872.0 915.5Q759 1038 615 1038Q472 1038 359.0 915.0Q246 792 246 606Q246 420 359.0 297.5Q472 175 615 175Q759 175 872.0 297.0Q985 419 985 606Z" transform="translate(438.4,305.0) scale(0.007812,-0.007812)" fill="#8fa3c4"/>
    <path d="M403 463V205H477Q551 205 582.5 176.5Q614 148 614 102Q614 57 582.5 28.5Q551 0 477 0H166Q92 0 60.5 28.5Q29 57 29 103Q29 148 61.0 176.5Q93 205 166 205H198V1007H166Q92 1007 60.5 1035.5Q29 1064 29 1110Q29 1156 60.5 1184.5Q92 1213 166 1213L630 1212Q847 1212 966.5 1104.5Q1086 997 1086 843Q1086 747 1030.0 668.5Q974 590 861 529Q926 472 1000 383Q1046 326 1124 205Q1202 205 1227 189Q1272 158 1272 102Q1272 57 1241.0 28.5Q1210 0 1136 0H1019Q770 385 606 463ZM403 668H563Q652 668 722 695Q816 731 848.5 771.0Q881 811 881 850Q881 908 819.0 957.5Q757 1007 638 1007H403Z" transform="translate(454.0,305.0) scale(0.007812,-0.007812)" fill="#8fa3c4"/>
    <path d="M865 330H367L317 205H367Q441 205 472.5 176.5Q504 148 504 102Q504 57 472.5 28.5Q441 0 367 0H91Q17 0 -14.5 28.5Q-46 57 -46 103Q-46 149 -13.0 178.0Q20 207 96 205L418 1007H284Q210 1007 178.5 1035.5Q147 1064 147 1110Q147 1156 178.5 1184.5Q210 1213 284 1213L727 1212L1135 205Q1207 205 1230 189Q1276 156 1276 102Q1276 57 1245.0 28.5Q1214 0 1140 0H864Q790 0 758.5 28.5Q727 57 727 103Q727 148 758.5 176.5Q790 205 864 205H914ZM780 535 615 941 449 535Z" transform="translate(485.2,305.0) scale(0.007812,-0.007812)" fill="#8fa3c4"/>
    <path d="M294 816V205H368Q442 205 473.5 176.5Q505 148 505 102Q505 57 473.5 28.5Q442 0 368 0H99Q25 0 -6.5 28.5Q-38 57 -38 103Q-38 148 -7.0 176.5Q24 205 89 205V1007Q35 1012 7.5 1040.0Q-20 1068 -20 1110Q-20 1156 11.5 1184.5Q43 1213 117 1213L342 1212L621 595L895 1213L1122 1212Q1196 1212 1227.5 1184.0Q1259 1156 1259 1110Q1259 1068 1231.0 1040.0Q1203 1012 1150 1007V205Q1215 205 1246.0 176.0Q1277 147 1277 102Q1277 57 1245.5 28.5Q1214 0 1140 0H870Q797 0 765.5 28.5Q734 57 734 103Q734 148 765.5 176.5Q797 205 870 205H945V816L710 288H532Z" transform="translate(516.4,305.0) scale(0.007812,-0.007812)" fill="#8fa3c4"/>
    <path d="M1190 606Q1190 333 1016.5 151.5Q843 -30 615 -30Q410 -30 245 121Q41 308 41 606Q41 904 245 1092Q410 1243 615 1243Q843 1243 1016.5 1061.5Q1190 880 1190 606ZM985 606Q985 793 872.0 915.5Q759 1038 615 1038Q472 1038 359.0 915.0Q246 792 246 606Q246 420 359.0 297.5Q472 175 615 175Q759 175 872.0 297.0Q985 419 985 606Z" transform="translate(532.0,305.0) scale(0.007812,-0.007812)" fill="#8fa3c4"/>
    <path d="M403 463V205H477Q551 205 582.5 176.5Q614 148 614 102Q614 57 582.5 28.5Q551 0 477 0H166Q92 0 60.5 28.5Q29 57 29 103Q29 148 61.0 176.5Q93 205 166 205H198V1007H166Q92 1007 60.5 1035.5Q29 1064 29 1110Q29 1156 60.5 1184.5Q92 1213 166 1213L630 1212Q847 1212 966.5 1104.5Q1086 997 1086 843Q1086 747 1030.0 668.5Q974 590 861 529Q926 472 1000 383Q1046 326 1124 205Q1202 205 1227 189Q1272 158 1272 102Q1272 57 1241.0 28.5Q1210 0 1136 0H1019Q770 385 606 463ZM403 668H563Q652 668 722 695Q816 731 848.5 771.0Q881 811 881 850Q881 908 819.0 957.5Q757 1007 638 1007H403Z" transform="translate(547.6,305.0) scale(0.007812,-0.007812)" fill="#8fa3c4"/>
    <path d="M404 506V205H927V316Q927 390 955.5 421.5Q984 453 1030 453Q1075 453 1103.5 421.5Q1132 390 1132 316V0H167Q93 0 61.5 28.5Q30 57 30 103Q30 148 62.0 176.5Q94 205 167 205H199V1007H167Q93 1007 61.5 1035.5Q30 1064 30 1110Q30 1156 61.5 1184.5Q93 1213 167 1213L1087 1212V900Q1087 827 1059.0 795.5Q1031 764 985 764Q939 764 910.5 795.0Q882 826 882 900V1007H404V711H584Q584 791 599 814Q630 863 687 863Q732 863 760.5 831.5Q789 800 789 726V490Q789 423 773 400Q741 353 687 353Q630 353 599 402Q584 425 584 506Z" transform="translate(563.2,305.0) scale(0.007812,-0.007812)" fill="#8fa3c4"/>
    <path d="M496 416V205H703Q777 205 808.5 176.5Q840 148 840 102Q840 57 808.5 28.5Q777 0 703 0H259Q185 0 153.5 28.5Q122 57 122 103Q122 148 154.0 176.5Q186 205 259 205H291V1007H259Q185 1007 153.5 1035.5Q122 1064 122 1110Q122 1156 153.5 1184.5Q185 1213 259 1213L731 1212Q939 1212 1060.5 1098.5Q1182 985 1182 822Q1182 732 1141 652Q1110 592 1037.5 533.5Q965 475 889.5 445.5Q814 416 690 416ZM496 621H686Q820 621 898.5 681.5Q977 742 977 827Q977 899 913.5 953.0Q850 1007 732 1007H496Z" transform="translate(594.4,305.0) scale(0.007812,-0.007812)" fill="#8fa3c4"/>
    <path d="M404 506V205H927V316Q927 390 955.5 421.5Q984 453 1030 453Q1075 453 1103.5 421.5Q1132 390 1132 316V0H167Q93 0 61.5 28.5Q30 57 30 103Q30 148 62.0 176.5Q94 205 167 205H199V1007H167Q93 1007 61.5 1035.5Q30 1064 30 1110Q30 1156 61.5 1184.5Q93 1213 167 1213L1087 1212V900Q1087 827 1059.0 795.5Q1031 764 985 764Q939 764 910.5 795.0Q882 826 882 900V1007H404V711H584Q584 791 599 814Q630 863 687 863Q732 863 760.5 831.5Q789 800 789 726V490Q789 423 773 400Q741 353 687 353Q630 353 599 402Q584 425 584 506Z" transform="translate(610.0,305.0) scale(0.007812,-0.007812)" fill="#8fa3c4"/>
    <path d="M403 463V205H477Q551 205 582.5 176.5Q614 148 614 102Q614 57 582.5 28.5Q551 0 477 0H166Q92 0 60.5 28.5Q29 57 29 103Q29 148 61.0 176.5Q93 205 166 205H198V1007H166Q92 1007 60.5 1035.5Q29 1064 29 1110Q29 1156 60.5 1184.5Q92 1213 166 1213L630 1212Q847 1212 966.5 1104.5Q1086 997 1086 843Q1086 747 1030.0 668.5Q974 590 861 529Q926 472 1000 383Q1046 326 1124 205Q1202 205 1227 189Q1272 158 1272 102Q1272 57 1241.0 28.5Q1210 0 1136 0H1019Q770 385 606 463ZM403 668H563Q652 668 722 695Q816 731 848.5 771.0Q881 811 881 850Q881 908 819.0 957.5Q757 1007 638 1007H403Z" transform="translate(625.6,305.0) scale(0.007812,-0.007812)" fill="#8fa3c4"/>
    <path d="M474 505V205H684Q758 205 789.5 176.5Q821 148 821 102Q821 57 789.5 28.5Q758 0 684 0H237Q163 0 131.5 28.5Q100 57 100 103Q100 148 132.0 176.5Q164 205 237 205H269V1007H237Q163 1007 131.5 1035.5Q100 1064 100 1110Q100 1156 131.5 1184.5Q163 1213 237 1213L1202 1212V899Q1202 826 1173.5 794.5Q1145 763 1099 763Q1054 763 1025.5 794.0Q997 825 997 899V1007H474V710H654Q654 790 669 813Q700 862 757 862Q802 862 830.5 830.5Q859 799 859 725V489Q859 415 830.5 383.5Q802 352 756 352Q700 352 669 401Q654 424 654 505Z" transform="translate(641.2,305.0) scale(0.007812,-0.007812)" fill="#8fa3c4"/>
    <path d="M404 506V205H927V316Q927 390 955.5 421.5Q984 453 1030 453Q1075 453 1103.5 421.5Q1132 390 1132 316V0H167Q93 0 61.5 28.5Q30 57 30 103Q30 148 62.0 176.5Q94 205 167 205H199V1007H167Q93 1007 61.5 1035.5Q30 1064 30 1110Q30 1156 61.5 1184.5Q93 1213 167 1213L1087 1212V900Q1087 827 1059.0 795.5Q1031 764 985 764Q939 764 910.5 795.0Q882 826 882 900V1007H404V711H584Q584 791 599 814Q630 863 687 863Q732 863 760.5 831.5Q789 800 789 726V490Q789 423 773 400Q741 353 687 353Q630 353 599 402Q584 425 584 506Z" transform="translate(656.8,305.0) scale(0.007812,-0.007812)" fill="#8fa3c4"/>
    <path d="M936 1160Q955 1186 977.5 1199.0Q1000 1212 1026 1212Q1071 1212 1099.5 1181.0Q1128 1150 1128 1076V902Q1128 828 1099.5 796.5Q1071 765 1026 765Q985 765 960 788Q935 811 923 874Q916 916 895 939Q854 984 780.5 1011.0Q707 1038 633 1038Q541 1038 464.0 998.0Q387 958 328.0 868.0Q269 778 269 654V521Q269 373 376.5 274.0Q484 175 675 175Q789 175 868 206Q914 224 966 277Q998 309 1016.0 318.5Q1034 328 1057 328Q1098 328 1129.0 297.0Q1160 266 1160 224Q1160 182 1118 134Q1057 64 961 24Q832 -30 676 -30Q494 -30 348 45Q230 105 147.0 234.5Q64 364 64 517V656Q64 816 138.5 954.5Q213 1093 345.0 1168.0Q477 1243 625 1243Q714 1243 791.5 1222.5Q869 1202 936 1160Z" transform="translate(672.4,305.0) scale(0.007812,-0.007812)" fill="#8fa3c4"/>
    <path d="M714 1007V205H852Q926 205 957.5 176.5Q989 148 989 102Q989 57 957.5 28.5Q926 0 852 0H372Q298 0 266.5 28.5Q235 57 235 103Q235 148 266.5 176.5Q298 205 372 205H509V1007H287V813Q287 739 258.5 707.5Q230 676 184 676Q139 676 110.5 707.5Q82 739 82 813V1213L1144 1212V813Q1144 739 1115.5 707.5Q1087 676 1041 676Q996 676 967.5 707.5Q939 739 939 813V1007Z" transform="translate(688.0,305.0) scale(0.007812,-0.007812)" fill="#8fa3c4"/>
    <path d="M1083 1007V426Q1083 236 946.5 103.0Q810 -30 618 -30Q523 -30 439.5 3.5Q356 37 289.5 102.0Q223 167 186.0 237.5Q149 308 149 426V1007Q84 1007 53.0 1036.0Q22 1065 22 1110Q22 1156 53.0 1184.0Q84 1212 159 1212L428 1213Q502 1213 533.5 1184.5Q565 1156 565 1110Q565 1064 533.5 1035.5Q502 1007 428 1007H354V408Q354 316 430.5 245.5Q507 175 615 175Q687 175 750.0 209.0Q813 243 853 308Q878 349 878 408V1007H804Q730 1007 698.5 1035.5Q667 1064 667 1110Q667 1156 698.5 1184.5Q730 1213 804 1213L1073 1212Q1147 1212 1178.5 1184.0Q1210 1156 1210 1110Q1210 1065 1179.0 1036.0Q1148 1007 1083 1007Z" transform="translate(719.2,305.0) scale(0.007812,-0.007812)" fill="#8fa3c4"/>
    <path d="M358 825V205H432Q506 205 537.5 176.5Q569 148 569 102Q569 57 537.5 28.5Q506 0 432 0H163Q89 0 57.5 28.5Q26 57 26 103Q26 147 57.0 176.0Q88 205 153 205V1007H121Q47 1007 15.5 1035.5Q-16 1064 -16 1110Q-16 1156 15.5 1184.5Q47 1213 121 1213L358 1212L882 390V1007H808Q734 1007 702.5 1035.5Q671 1064 671 1110Q671 1156 702.5 1184.5Q734 1213 808 1213L1077 1212Q1151 1212 1182.5 1184.0Q1214 1156 1214 1110Q1214 1065 1183.0 1036.0Q1152 1007 1088 1007V0H885Z" transform="translate(734.8,305.0) scale(0.007812,-0.007812)" fill="#8fa3c4"/>
    <path d="M717 1007V205H924Q998 205 1029.5 176.5Q1061 148 1061 102Q1061 57 1029.5 28.5Q998 0 924 0H305Q231 0 199.5 28.5Q168 57 168 103Q168 148 199.5 176.5Q231 205 305 205H512V1007H305Q231 1007 199.5 1035.5Q168 1064 168 1110Q168 1156 199.5 1184.5Q231 1213 305 1213L924 1212Q998 1212 1029.5 1184.0Q1061 1156 1061 1110Q1061 1064 1029.5 1035.5Q998 1007 924 1007Z" transform="translate(750.4,305.0) scale(0.007812,-0.007812)" fill="#8fa3c4"/>
    <path d="M1190 606Q1190 333 1016.5 151.5Q843 -30 615 -30Q410 -30 245 121Q41 308 41 606Q41 904 245 1092Q410 1243 615 1243Q843 1243 1016.5 1061.5Q1190 880 1190 606ZM985 606Q985 793 872.0 915.5Q759 1038 615 1038Q472 1038 359.0 915.0Q246 792 246 606Q246 420 359.0 297.5Q472 175 615 175Q759 175 872.0 297.0Q985 419 985 606Z" transform="translate(766.0,305.0) scale(0.007812,-0.007812)" fill="#8fa3c4"/>
    <path d="M358 825V205H432Q506 205 537.5 176.5Q569 148 569 102Q569 57 537.5 28.5Q506 0 432 0H163Q89 0 57.5 28.5Q26 57 26 103Q26 147 57.0 176.0Q88 205 153 205V1007H121Q47 1007 15.5 1035.5Q-16 1064 -16 1110Q-16 1156 15.5 1184.5Q47 1213 121 1213L358 1212L882 390V1007H808Q734 1007 702.5 1035.5Q671 1064 671 1110Q671 1156 702.5 1184.5Q734 1213 808 1213L1077 1212Q1151 1212 1182.5 1184.0Q1214 1156 1214 1110Q1214 1065 1183.0 1036.0Q1152 1007 1088 1007V0H885Z" transform="translate(781.6,305.0) scale(0.007812,-0.007812)" fill="#8fa3c4"/>
  </g>
</svg>